<svg id="Ebene_1" data-name="Ebene 1" xmlns="http://www.w3.org/2000/svg" xmlns:xlink="http://www.w3.org/1999/xlink" viewBox="0 0 272.64 291.59"><defs><style>.cls-1,.cls-4,.cls-5{fill:none;}.cls-1{stroke:#0b5ca1;stroke-width:3.32px;}.cls-1,.cls-2,.cls-4,.cls-5{stroke-miterlimit:10;}.cls-2,.cls-3{fill:#fff;}.cls-2{stroke:#fff;stroke-width:7.98px;}.cls-4,.cls-5{stroke-width:5.98px;}.cls-4{stroke:url(#Unbenannter_Verlauf_6);}.cls-5{stroke:url(#Unbenannter_Verlauf_6-2);}.cls-6{fill:url(#Unbenannter_Verlauf_6-3);}.cls-7{fill:url(#Unbenannter_Verlauf_6-4);}.cls-8{fill:url(#Unbenannter_Verlauf_6-5);}.cls-9{fill:url(#Unbenannter_Verlauf_6-6);}.cls-10{fill:url(#Unbenannter_Verlauf_6-7);}</style><linearGradient id="Unbenannter_Verlauf_6" x1="384.73" y1="256.61" x2="502.71" y2="374.59" gradientTransform="translate(-67.48 -39.45)" gradientUnits="userSpaceOnUse"><stop offset="0" stop-color="#065aa0"/><stop offset="0.95" stop-color="#5bbba7"/></linearGradient><linearGradient id="Unbenannter_Verlauf_6-2" x1="335.07" y1="180.3" x2="471.99" y2="317.22" gradientTransform="matrix(1, 0, 0, 1, 0, 0)" xlink:href="#Unbenannter_Verlauf_6"/><linearGradient id="Unbenannter_Verlauf_6-3" x1="130.12" y1="26.71" x2="156.86" y2="53.45" gradientTransform="matrix(1, 0, 0, 1, 0, 0)" xlink:href="#Unbenannter_Verlauf_6"/><linearGradient id="Unbenannter_Verlauf_6-4" x1="190.08" y1="26.71" x2="216.82" y2="53.45" gradientTransform="matrix(1, 0, 0, 1, 0, 0)" xlink:href="#Unbenannter_Verlauf_6"/><linearGradient id="Unbenannter_Verlauf_6-5" x1="223.61" y1="43.96" x2="244.38" y2="64.72" gradientTransform="matrix(1, 0, 0, 1, 0, 0)" xlink:href="#Unbenannter_Verlauf_6"/><linearGradient id="Unbenannter_Verlauf_6-6" x1="124.26" y1="46.83" x2="139.27" y2="61.85" gradientTransform="matrix(1, 0, 0, 1, 0, 0)" xlink:href="#Unbenannter_Verlauf_6"/><linearGradient id="Unbenannter_Verlauf_6-7" x1="451.26" y1="192.15" x2="478" y2="218.89" gradientTransform="translate(929.26 411.04) rotate(-180)" xlink:href="#Unbenannter_Verlauf_6"/></defs><path class="cls-1" d="M286.29,441.11V404.6H287v17.92h26V404.6h.67v36.51h-.67V423.19H287v17.92Z" transform="translate(-284.63 -151.18)"/><path class="cls-1" d="M360.46,440.43v.68H337.67V404.6h22.79v.67H338.35v17H355v.67H338.35v17.51Z" transform="translate(-284.63 -151.18)"/><path class="cls-1" d="M382.5,441.11h-.67V404.6h15.42q3.92,0,5.81,2.19a8.18,8.18,0,0,1,1.89,5.52V417a13.71,13.71,0,0,1-.81,5.11,4.75,4.75,0,0,1-3.24,2.74h.74q4.13,0,6.15,1.85a6.92,6.92,0,0,1,2,5.38v9.06h-.67v-9.06a6.38,6.38,0,0,0-1.83-5c-1.22-1.1-3.11-1.66-5.68-1.66H382.5Zm14.75-35.84H382.5v19.55h14.75q4.19,0,5.61-2a10,10,0,0,0,1.42-5.75v-4.73a7.41,7.41,0,0,0-1.73-5.08A6.72,6.72,0,0,0,397.25,405.27Z" transform="translate(-284.63 -151.18)"/><path class="cls-1" d="M448.57,421.16a2.4,2.4,0,0,0,1.75-.54,15.75,15.75,0,0,0,1.69-2.3l8.25-12.57a2.25,2.25,0,0,1,.92-.92,2.5,2.5,0,0,1,1-.23h1.15a1.77,1.77,0,0,1,1.39.5,2.41,2.41,0,0,1,.44,1.59v34.42h-.68V406.69a2.14,2.14,0,0,0-.23-1,1,1,0,0,0-.92-.44h-1a2.14,2.14,0,0,0-.81.14,1.85,1.85,0,0,0-.74.81l-8.25,12.44a22.37,22.37,0,0,1-1.86,2.5,2.85,2.85,0,0,1-2.13.68,2.82,2.82,0,0,1-2.13-.68,20.08,20.08,0,0,1-1.86-2.5l-8.25-12.44a1.78,1.78,0,0,0-.78-.81,2.48,2.48,0,0,0-.85-.14h-1a.88.88,0,0,0-.88.44,2.42,2.42,0,0,0-.2,1v34.42h-.68V406.69a2.41,2.41,0,0,1,.44-1.59,1.67,1.67,0,0,1,1.32-.5h1.15a2.8,2.8,0,0,1,1.08.23,2.19,2.19,0,0,1,.95.92l8.25,12.57a15.75,15.75,0,0,0,1.69,2.3A2.42,2.42,0,0,0,448.57,421.16Z" transform="translate(-284.63 -151.18)"/><path class="cls-1" d="M512.33,440.43v.68H489.54V404.6h22.79v.67H490.22v17h16.63v.67H490.22v17.51Z" transform="translate(-284.63 -151.18)"/><path class="cls-1" d="M554.45,404.6v.67h-15a6.43,6.43,0,0,0-4.53,1.56,5.12,5.12,0,0,0-1.69,3.92v5.55a4.63,4.63,0,0,0,.95,3.31,4.52,4.52,0,0,0,2.5,1.22l14.27,2.9a6.22,6.22,0,0,1,3.34,1.76c.88.9,1.32,2.53,1.32,4.87v3.92a6.42,6.42,0,0,1-2,4.9,7.58,7.58,0,0,1-5.47,1.93H531.26v-.68H548.1a7,7,0,0,0,5-1.72,5.78,5.78,0,0,0,1.86-4.43v-3.92c0-2.12-.38-3.57-1.12-4.36a5.62,5.62,0,0,0-3-1.59l-14.26-2.91a5.68,5.68,0,0,1-2.88-1.38c-.74-.7-1.11-2-1.11-3.82v-5.55a5.73,5.73,0,0,1,1.89-4.43,7.13,7.13,0,0,1,5-1.72Z" transform="translate(-284.63 -151.18)"/><path class="cls-2" d="M359.6,268.85" transform="translate(-284.63 -151.18)"/><path class="cls-3" d="M481.16,225.43" transform="translate(-284.63 -151.18)"/><path class="cls-3" d="M469.94,215.5" transform="translate(-284.63 -151.18)"/><path class="cls-3" d="M466.38,212.91" transform="translate(-284.63 -151.18)"/><path class="cls-4" d="M434.19,246.07c-3.28-3-8.23-4.48-14.89-4.48H371.87V164.17h-1.63V377.75h1.63V243l1.12,0H419.3q9.33,0,13.74,4c2.95,2.67,4.42,6.66,4.42,17.55v66.68h1.64V264.6C439.1,253.39,437.46,249.07,434.19,246.07Z" transform="translate(-284.63 -151.18)"/><path class="cls-2" d="M359.28,269.56" transform="translate(-284.63 -151.18)"/><g id="WEG"><path class="cls-5" d="M496,226.91a80,80,0,0,1,2.36,21,93.49,93.49,0,0,1-39.09,76.07,93.14,93.14,0,0,1-21.37,11.5,89.64,89.64,0,0,1-10.28,3.25,94.06,94.06,0,0,1-18.34,2.77c-1.62.08-3.25.11-4.88.11-1.16,0-2.33,0-3.48-.07a94,94,0,0,1-20.42-3,91.75,91.75,0,0,1-9.6-3.08,93.63,93.63,0,0,1,0-175.12q3.92-1.49,8-2.63a93.78,93.78,0,0,1,25.52-3.5c18.82,0,34.93,4.62,49.63,14.11" transform="translate(-284.63 -151.18)"/></g><path class="cls-3" d="M481.68,226" transform="translate(-284.63 -151.18)"/><path class="cls-3" d="M470.38,216" transform="translate(-284.63 -151.18)"/><path class="cls-3" d="M466.8,213.4" transform="translate(-284.63 -151.18)"/><rect class="cls-6" x="120.04" y="36.79" width="46.89" height="6.58"/><rect class="cls-7" x="180.01" y="36.79" width="46.89" height="6.58"/><rect class="cls-8" x="216.52" y="51.05" width="34.95" height="6.58"/><rect class="cls-9" x="120.04" y="51.05" width="23.45" height="6.58"/><rect class="cls-10" x="441.19" y="202.23" width="46.89" height="6.58" transform="translate(644.64 259.86) rotate(180)"/></svg>